M48
; DRILL file {KiCad 9.0.0} date 2025-03-19T15:52:03+0100
; FORMAT={-:-/ absolute / metric / decimal}
; #@! TF.CreationDate,2025-03-19T15:52:03+01:00
; #@! TF.GenerationSoftware,Kicad,Pcbnew,9.0.0
; #@! TF.FileFunction,Plated,1,2,PTH
FMAT,2
METRIC
; #@! TA.AperFunction,Plated,PTH,ComponentDrill
T1C0.800
; #@! TA.AperFunction,Plated,PTH,ComponentDrill
T2C1.000
; #@! TA.AperFunction,Plated,PTH,ComponentDrill
T3C1.100
; #@! TA.AperFunction,Plated,PTH,ComponentDrill
T4C1.200
; #@! TA.AperFunction,Plated,PTH,ComponentDrill
T5C4.000
%
G90
G05
T1
X98.5Y-53.65
X98.5Y-66.35
X102.45Y-53.703
X102.45Y-66.403
X106.0Y-57.5
X106.0Y-60.0
X106.532Y-51.768
X107.0Y-96.0
X107.0Y-108.7
X108.3Y-50.0
X109.215Y-77.47
X109.215Y-85.09
X111.0Y-91.5
X111.755Y-77.47
X111.755Y-85.09
X113.195Y-52.07
X113.195Y-54.61
X113.195Y-57.15
X113.195Y-59.69
X114.295Y-77.47
X114.295Y-85.09
X114.5Y-71.096
X116.0Y-91.5
X116.835Y-77.47
X116.835Y-85.09
X119.375Y-77.47
X119.375Y-85.09
X119.5Y-71.096
X120.0Y-91.5
X120.815Y-52.07
X120.815Y-54.61
X120.815Y-57.15
X120.815Y-59.69
X121.915Y-77.47
X121.915Y-85.09
X124.455Y-77.47
X124.455Y-85.09
X125.0Y-91.5
X125.7Y-50.0
X126.5Y-57.5
X126.5Y-60.0
X126.5Y-96.0
X126.5Y-108.7
X127.468Y-51.768
X129.0Y-82.0
X131.5Y-53.65
X131.5Y-66.35
X135.5Y-53.65
X135.5Y-66.35
X137.98Y-90.98
T2
X93.997Y-100.582
X96.497Y-100.582
X98.997Y-100.582
X114.319Y-100.72
X116.819Y-100.72
X119.319Y-100.72
X134.782Y-100.52
X137.282Y-100.52
X139.782Y-100.52
T4
X106.68Y-64.77
X114.3Y-67.31
X119.38Y-67.31
X125.73Y-64.77
T5
X91.948Y-55.118
X141.986Y-55.245
T3
G00X91.697Y-107.482
M15
G01X91.697Y-108.682
M16
G05
G00X101.297Y-107.482
M15
G01X101.297Y-108.682
M16
G05
G00X112.019Y-107.62
M15
G01X112.019Y-108.82
M16
G05
G00X121.619Y-107.62
M15
G01X121.619Y-108.82
M16
G05
G00X132.482Y-107.42
M15
G01X132.482Y-108.62
M16
G05
G00X142.082Y-107.42
M15
G01X142.082Y-108.62
M16
G05
M30
